<?xml version="1.0" encoding="UTF-8" standalone="no"?>
<!DOCTYPE svg PUBLIC "-//W3C//DTD SVG 1.1//EN" "http://www.w3.org/Graphics/SVG/1.1/DTD/svg11.dtd">
<svg width="100%" height="100%" viewBox="0 0 895 385" version="1.1" xmlns="http://www.w3.org/2000/svg" xmlns:xlink="http://www.w3.org/1999/xlink" xml:space="preserve" xmlns:serif="http://www.serif.com/" style="fill-rule:evenodd;clip-rule:evenodd;stroke-linejoin:round;stroke-miterlimit:2;">
    <g transform="matrix(1,0,0,1,-43.97,-301.775)">
        <path d="M409.82,472.22C403.35,374.95 321.83,300.57 225.51,301.79L225.51,666.85C230.23,666.9 234.98,666.83 239.77,666.51C340.38,659.82 416.51,572.84 409.82,472.23L409.82,472.22Z" style="fill:rgb(79,105,246);fill-rule:nonzero;"/>
        <path d="M517.98,411.91C517.98,400.77 521.47,392.41 528.46,386.84C535.44,381.27 545.75,378.48 559.39,378.48C572.26,378.48 583.38,381.17 592.79,386.47C594.77,379.3 597.42,372.63 600.73,366.49C602.38,363.44 604.17,360.54 606.08,357.79C599.87,354.28 592.59,351.6 584.23,349.74C575.62,347.83 566.45,346.88 556.71,346.88C532.02,346.88 512.82,352.6 499.1,364.05C485.38,375.5 478.52,391.53 478.52,412.14L478.52,499.3L517.98,499.3L517.98,452.34L588.13,452.34L588.13,422.57L517.98,422.57L517.98,411.9L517.98,411.91Z" style="fill:white;fill-rule:nonzero;"/>
        <path d="M726.42,355.58C737.41,361.38 745.96,369.93 752.06,381.23C758.16,392.53 761.22,406.19 761.22,422.22L761.22,499.31L724.13,499.31L724.13,464.9L650.86,464.9L650.86,499.31L614.22,499.31L614.22,422.22C614.22,406.19 617.27,392.53 623.38,381.23C629.48,369.93 638.04,361.39 649.03,355.58C660.02,349.78 672.92,346.88 687.73,346.88C702.54,346.88 715.44,349.78 726.43,355.58L726.42,355.58ZM724.13,435.13L724.13,418.78C724.13,405.5 720.85,395.46 714.28,388.67C707.72,381.88 698.78,378.48 687.49,378.48C676.2,378.48 667.07,381.88 660.59,388.67C654.1,395.46 650.86,405.5 650.86,418.78L650.86,435.13L724.13,435.13Z" style="fill:white;fill-rule:nonzero;"/>
        <path d="M901.67,356.73C912.13,361.46 920.18,368.18 925.83,376.88C931.47,385.58 934.3,395.88 934.3,407.79C934.3,419.7 931.47,429.81 925.83,438.59C920.18,447.37 912.13,454.09 901.67,458.74C891.21,463.4 878.89,465.72 864.69,465.72L824.34,465.72L824.34,499.3L787.25,499.3L787.25,349.63L864.69,349.63C878.89,349.63 891.21,352 901.67,356.73ZM888.05,428.28C893.85,423.47 896.75,416.64 896.75,407.79C896.75,398.94 893.85,391.88 888.05,387.07C882.25,382.26 873.77,379.86 862.63,379.86L824.34,379.86L824.34,435.5L862.63,435.5C873.77,435.5 882.24,433.1 888.05,428.28Z" style="fill:white;fill-rule:nonzero;"/>
        <path d="M137.5,536.89L69.08,577.14C75.11,587.39 82.18,597.09 90.11,605.97L149.33,553.11C144.86,548.11 140.88,542.65 137.49,536.89L137.5,536.89Z" style="fill:rgb(79,105,246);fill-rule:nonzero;"/>
        <path d="M164.09,566.69L116.4,630.15C118.49,631.72 120.61,633.25 122.76,634.73L167.8,569.37C166.55,568.51 165.31,567.61 164.09,566.69Z" style="fill:rgb(79,105,246);fill-rule:nonzero;"/>
        <path d="M168.77,657.64C180.08,661.39 191.8,664.03 203.6,665.49L213.35,586.71C206.72,585.89 200.14,584.4 193.77,582.29L168.77,657.64Z" style="fill:rgb(79,105,246);fill-rule:nonzero;"/>
        <path d="M123.52,490.74C123.41,488.93 123.35,487.13 123.35,485.33L43.97,485.73C43.99,488.94 44.09,492.21 44.28,495.43C44.79,504.04 45.92,512.71 47.66,521.19L125.44,505.33C124.46,500.51 123.82,495.6 123.53,490.73L123.52,490.74Z" style="fill:rgb(79,105,246);fill-rule:nonzero;"/>
        <path d="M128.39,516.57L52.84,540.96C54.46,545.97 56.32,550.97 58.38,555.84L131.5,524.94C130.34,522.2 129.29,519.38 128.39,516.57Z" style="fill:rgb(79,105,246);fill-rule:nonzero;"/>
        <path d="M173.47,573L132.76,641.14C137.29,643.84 141.99,646.38 146.75,648.69L181.34,577.24C178.67,575.95 176.02,574.52 173.48,573L173.47,573Z" style="fill:rgb(79,105,246);fill-rule:nonzero;"/>
        <path d="M128.61,452.41L53.38,427.08C52.52,429.62 51.73,432.17 50.99,434.75L127.31,456.6C127.71,455.19 128.15,453.79 128.61,452.41Z" style="fill:rgb(79,105,246);fill-rule:nonzero;"/>
        <path d="M148.51,417.56L88.54,365.55C80.77,374.52 73.83,384.29 67.94,394.61L136.86,433.99C140.19,428.16 144.11,422.63 148.51,417.56Z" style="fill:rgb(79,105,246);fill-rule:nonzero;"/>
        <path d="M125.66,463.13L48.09,446.29C46.97,451.46 46.06,456.73 45.4,461.95L124.15,471.93C124.52,469 125.03,466.04 125.66,463.13Z" style="fill:rgb(79,105,246);fill-rule:nonzero;"/>
        <path d="M164.9,402.36L117.56,338.64C113.32,341.79 109.18,345.15 105.25,348.64L157.94,408.01C160.15,406.04 162.5,404.14 164.9,402.36Z" style="fill:rgb(79,105,246);fill-rule:nonzero;"/>
        <path d="M205.5,384.3C207.67,383.86 209.88,383.48 212.07,383.18L201.16,304.55C197.32,305.08 193.44,305.75 189.63,306.52C181.81,308.12 174.05,310.23 166.56,312.81L192.4,387.87C196.64,386.41 201.04,385.21 205.49,384.3L205.5,384.3Z" style="fill:rgb(79,105,246);fill-rule:nonzero;"/>
        <path d="M174.15,396.24L134.13,327.68C131.83,329.02 129.58,330.41 127.36,331.84L170.37,398.55C171.61,397.75 172.87,396.98 174.15,396.23L174.15,396.24Z" style="fill:rgb(79,105,246);fill-rule:nonzero;"/>
        <path d="M513.1,540.96C528.03,540.96 542.51,549.86 549.14,564.79C551.55,570.22 552.76,575.8 552.76,581.23C552.76,596.31 544.32,610.33 530.14,616.67C525.17,618.93 520.04,619.99 514.91,619.99C499.83,619.99 485.35,611.09 478.72,596.16C476.46,590.73 475.25,585.15 475.25,579.57C475.25,564.64 483.54,550.47 497.87,544.13C502.84,542.02 507.97,540.96 513.1,540.96ZM493.19,570.22C493.19,575.8 494.85,581.98 497.41,587.86C502.23,598.57 510.23,607.92 519.58,607.92C521.54,607.92 523.5,607.47 525.61,606.56C532.09,603.69 534.66,597.66 534.66,590.72C534.66,585.14 533,578.81 530.44,573.08C525.77,562.37 517.62,553.02 508.42,553.02C506.46,553.02 504.35,553.47 502.39,554.38C495.76,557.25 493.19,563.28 493.19,570.22Z" style="fill:rgb(79,105,246);fill-rule:nonzero;"/>
        <path d="M657.26,611.38L657.26,615.91C657.26,617.42 656.35,618.17 655,618.17L613.98,618.17C612.62,618.17 611.72,617.42 611.72,615.91L611.72,611.38C611.72,609.87 612.62,609.12 614.13,609.12C619.86,609.12 622.12,602.94 621.97,594.8L621.97,572.03C621.97,563.89 622.72,554.08 611.11,554.08C603.72,554.08 595.43,560.57 592.86,567.05L592.86,594.8C592.86,602.94 596.48,609.12 603.87,609.12L604.17,609.12C605.68,609.12 606.43,609.87 606.43,611.38L606.43,615.91C606.43,617.42 605.68,618.17 604.17,618.17L560.29,618.17C558.78,618.17 558.03,617.42 558.03,615.91L558.03,611.38C558.03,609.87 558.78,609.12 560.29,609.12L560.6,609.12C567.99,609.12 571.61,602.94 571.61,594.8L571.61,575.8C571.61,567.81 571.01,559.36 562.71,558.46C561.2,558.31 560.9,557.56 560.9,556.5L560.9,551.37C560.9,550.16 561.65,549.71 563.16,549.41C577.48,547.15 588.94,541.27 592.87,538.4C593.17,538.25 593.32,538.1 593.62,538.1L593.92,538.1C594.07,538.1 594.22,538.1 594.22,538.25L591.51,558.16C595.73,551.37 603.72,540.82 617.6,540.82C639.17,540.82 643.24,555.45 643.24,569.92L643.24,594.8C643.24,602.94 646.86,609.12 654.25,609.12L655,609.12C656.36,609.12 657.26,609.87 657.26,611.38Z" style="fill:rgb(79,105,246);fill-rule:nonzero;"/>
        <path d="M706.55,609.12C707.91,609.12 708.81,609.87 708.81,611.38L708.81,615.91C708.81,617.42 707.91,618.17 706.55,618.17L663.27,618.17C661.76,618.17 661.01,617.42 661.01,615.91L661.01,611.38C661.01,609.87 661.76,609.12 663.27,609.12C670.66,609.12 674.43,602.94 674.28,594.8L674.28,554.89C674.28,546.75 673.68,538.45 665.23,537.55C663.87,537.4 663.42,536.65 663.57,535.59L663.57,530.46C663.57,529.25 664.33,528.95 665.68,528.5C681.66,523.22 689.96,517.49 694.03,514.48C694.33,514.33 694.48,514.18 694.63,514.18L695.08,514.18C695.18,514.18 695.28,514.28 695.38,514.48L695.38,594.81C695.38,602.95 699.15,609.13 706.54,609.13L706.55,609.12Z" style="fill:rgb(79,105,246);fill-rule:nonzero;"/>
        <path d="M761.59,611.38L761.59,615.91C761.59,617.42 760.53,618.17 759.03,618.17L716.35,618.17C714.84,618.17 713.78,617.42 713.78,615.91L713.78,611.38C713.78,609.87 714.53,609.12 716.04,609.12L716.34,609.12C723.73,609.12 727.35,602.94 727.2,594.8L727.2,578.81C727.2,572.02 726.6,563.73 718.3,562.82C716.79,562.67 716.49,561.92 716.49,560.86L716.49,555.73C716.49,554.52 717.24,554.22 718.75,553.77C734.58,548.49 742.42,542.61 746.5,538.39C746.65,538.24 746.95,538.09 747.1,538.09L747.4,538.09C747.6,538.09 747.75,538.14 747.85,538.24L747.85,594.79C747.85,602.93 751.47,609.11 758.86,609.11L759.31,609.11C760.82,609.11 761.57,609.86 761.57,611.37L761.59,611.38ZM724.58,533.02C721.87,530.46 720.81,528.2 720.81,525.48C720.81,522.76 721.87,520.65 724.58,517.94C727.14,515.23 729.4,514.17 732.12,514.17C734.84,514.17 736.94,515.23 739.66,517.94C742.38,520.65 743.43,522.76 743.43,525.48C743.43,528.2 742.37,530.45 739.66,533.02C736.95,535.74 734.84,536.79 732.12,536.79C729.4,536.79 727.14,535.73 724.58,533.02Z" style="fill:rgb(79,105,246);fill-rule:nonzero;"/>
        <path d="M867.14,611.38L867.14,615.91C867.14,617.42 866.23,618.17 864.88,618.17L823.86,618.17C822.5,618.17 821.6,617.42 821.6,615.91L821.6,611.38C821.6,609.87 822.5,609.12 824.01,609.12C829.74,609.12 832,602.94 831.85,594.8L831.85,572.03C831.85,563.89 832.6,554.08 820.99,554.08C813.6,554.08 805.31,560.57 802.74,567.05L802.74,594.8C802.74,602.94 806.36,609.12 813.75,609.12L814.05,609.12C815.56,609.12 816.31,609.87 816.31,611.38L816.31,615.91C816.31,617.42 815.56,618.17 814.05,618.17L770.17,618.17C768.66,618.17 767.91,617.42 767.91,615.91L767.91,611.38C767.91,609.87 768.66,609.12 770.17,609.12L770.48,609.12C777.87,609.12 781.49,602.94 781.49,594.8L781.49,575.8C781.49,567.81 780.89,559.36 772.59,558.46C771.08,558.31 770.78,557.56 770.78,556.5L770.78,551.37C770.78,550.16 771.53,549.71 773.04,549.41C787.36,547.15 798.82,541.27 802.75,538.4C803.05,538.25 803.2,538.1 803.5,538.1L803.8,538.1C803.95,538.1 804.1,538.1 804.1,538.25L801.39,558.16C805.61,551.37 813.6,540.82 827.48,540.82C849.05,540.82 853.12,555.45 853.12,569.92L853.12,594.8C853.12,602.94 856.74,609.12 864.13,609.12L864.88,609.12C866.24,609.12 867.14,609.87 867.14,611.38Z" style="fill:rgb(79,105,246);fill-rule:nonzero;"/>
        <path d="M911.76,607.46C918.25,607.46 925.79,603.99 931.06,596.3C931.36,595.85 931.96,595.7 932.27,595.7C933.17,595.7 933.48,595.7 938.3,598.56C938.75,598.86 938.9,599.31 938.9,599.77C938.9,600.52 938.45,601.58 938,602.33C932.27,612.89 923.07,619.97 907.69,619.97C882.66,619.97 867.27,601.57 867.27,579.71C867.27,551.81 885.37,541.1 903.16,541.1C923.07,541.1 934.22,558.74 934.22,570.2C934.22,570.95 933.92,571.71 932.86,572.01L889.13,591.16C892.6,599.61 900.14,607.45 911.75,607.45L911.76,607.46ZM899.4,553.02C891.11,553.02 885.98,560.41 885.98,570.21C885.98,573.22 886.13,578.2 887.34,581.82L911.62,569.61C911.62,559.96 906.34,553.02 899.41,553.02L899.4,553.02Z" style="fill:rgb(79,105,246);fill-rule:nonzero;"/>
        <path d="M498.8,654.88C500.61,655.89 502.02,657.29 503.05,659.1C504.08,660.91 504.58,663 504.58,665.37C504.58,667.74 504.07,669.84 503.05,671.66C502.03,673.48 500.61,674.9 498.8,675.91C496.99,676.92 494.95,677.42 492.67,677.42C490.92,677.42 489.32,677.08 487.87,676.4C486.42,675.72 485.22,674.73 484.27,673.42L484.27,677.15L480.18,677.15L480.18,644.16L484.45,644.16L484.45,657.14C485.4,655.9 486.58,654.95 488.01,654.32C489.43,653.68 490.99,653.36 492.68,653.36C494.96,653.36 497.01,653.87 498.81,654.87L498.8,654.88ZM496.38,672.64C497.58,671.94 498.53,670.97 499.23,669.71C499.93,668.45 500.27,667.01 500.27,665.38C500.27,663.75 499.92,662.31 499.23,661.05C498.53,659.79 497.59,658.82 496.38,658.14C495.18,657.46 493.82,657.12 492.31,657.12C490.8,657.12 489.48,657.46 488.26,658.14C487.04,658.82 486.1,659.79 485.41,661.05C484.73,662.31 484.39,663.75 484.39,665.38C484.39,667.01 484.73,668.45 485.41,669.71C486.09,670.97 487.04,671.95 488.26,672.64C489.47,673.34 490.82,673.68 492.31,673.68C493.8,673.68 495.18,673.33 496.38,672.64Z" style="fill:white;fill-rule:nonzero;"/>
        <path d="M531.56,653.59L531.56,673.95C531.56,678.07 530.6,681.11 528.67,683.09C526.74,685.06 523.85,686.05 520,686.05C517.89,686.05 515.89,685.75 513.98,685.14C512.07,684.53 510.51,683.66 509.29,682.54L511.38,679.25C512.42,680.2 513.67,680.94 515.14,681.47C516.61,682 518.16,682.27 519.79,682.27C522.37,682.27 524.26,681.63 525.48,680.34C526.69,679.05 527.3,677.07 527.3,674.4L527.3,672.67C526.44,673.8 525.33,674.66 523.97,675.27C522.61,675.88 521.12,676.18 519.52,676.18C516.38,676.18 513.9,675.32 512.1,673.6C510.3,671.88 509.39,669.33 509.39,665.95L509.39,653.59L513.66,653.59L513.66,665.46C513.66,667.71 514.21,669.43 515.31,670.59C516.41,671.76 517.98,672.35 520.02,672.35C522.27,672.35 524.05,671.67 525.36,670.3C526.66,668.94 527.32,667.01 527.32,664.52L527.32,653.58L531.59,653.58L531.56,653.59Z" style="fill:white;fill-rule:nonzero;"/>
        <path d="M550.5,646.03L554.95,646.03L554.95,673.28L571.8,673.28L571.8,677.15L550.5,677.15L550.5,646.03Z" style="fill:white;fill-rule:nonzero;"/>
        <path d="M597.01,661.41L601.28,661.41L601.28,677.15L597.37,677.15L597.37,675.06C595.09,676.69 592.2,677.51 588.7,677.51C585.88,677.51 583.27,676.89 580.85,675.64C578.43,674.4 576.51,672.58 575.07,670.19C573.63,667.8 572.91,664.98 572.91,661.72C572.91,658.64 573.63,655.88 575.07,653.45C576.51,651.02 578.49,649.12 581.03,647.74C583.56,646.36 586.42,645.67 589.59,645.67C592.08,645.67 594.34,646.08 596.37,646.89C598.4,647.7 600.13,648.9 601.55,650.47L598.79,653.23C596.3,650.83 593.29,649.63 589.77,649.63C587.4,649.63 585.27,650.15 583.39,651.19C581.51,652.23 580.03,653.67 578.97,655.5C577.9,657.34 577.37,659.41 577.37,661.72C577.37,664.18 577.91,666.32 578.99,668.12C580.07,669.93 581.5,671.3 583.28,672.23C585.06,673.16 586.98,673.63 589.06,673.63C590.51,673.63 591.93,673.39 593.31,672.9C594.69,672.41 595.93,671.69 597.02,670.74L597.02,661.41L597.01,661.41Z" style="fill:white;fill-rule:nonzero;"/>
        <path d="M621.19,675.53C619.95,674.27 619.32,672.5 619.32,670.22L619.32,644.17L623.59,644.17L623.59,669.87C623.59,671.14 623.89,672.12 624.5,672.8C625.11,673.48 626.02,673.82 627.23,673.82C627.97,673.82 628.67,673.67 629.32,673.38L629.54,676.89C628.56,677.24 627.54,677.42 626.47,677.42C624.19,677.42 622.42,676.79 621.18,675.53L621.19,675.53Z" style="fill:white;fill-rule:nonzero;"/>
        <path d="M654.67,653.59L654.67,677.15L650.62,677.15L650.62,673.59C649.76,674.81 648.63,675.75 647.22,676.41C645.81,677.08 644.28,677.41 642.62,677.41C639.48,677.41 637,676.54 635.2,674.81C633.39,673.08 632.49,670.52 632.49,667.14L632.49,653.58L636.76,653.58L636.76,666.65C636.76,668.93 637.31,670.66 638.41,671.83C639.51,673 641.08,673.59 643.12,673.59C645.37,673.59 647.15,672.91 648.46,671.54C649.76,670.18 650.42,668.25 650.42,665.76L650.42,653.58L654.69,653.58L654.67,653.59Z" style="fill:white;fill-rule:nonzero;"/>
        <path d="M684.45,653.58L684.45,673.95C684.45,678.07 683.43,681.11 681.38,683.09C679.34,685.06 676.28,686.05 672.22,686.05C670,686.05 667.88,685.75 665.86,685.14C663.84,684.53 662.22,683.66 660.97,682.54L663.01,679.25C664.11,680.2 665.46,680.95 667.08,681.49C668.69,682.04 670.36,682.31 672.08,682.31C674.84,682.31 676.87,681.66 678.19,680.35C679.51,679.05 680.17,677.06 680.17,674.39L680.17,672.52C679.16,673.74 677.93,674.65 676.46,675.25C674.99,675.86 673.4,676.16 671.68,676.16C669.43,676.16 667.39,675.68 665.57,674.72C663.75,673.76 662.32,672.41 661.28,670.67C660.24,668.93 659.72,666.96 659.72,664.73C659.72,662.5 660.24,660.53 661.28,658.79C662.32,657.06 663.75,655.72 665.57,654.77C667.39,653.82 669.43,653.35 671.68,653.35C673.46,653.35 675.11,653.68 676.64,654.33C678.17,654.98 679.42,655.95 680.4,657.22L680.4,653.58L684.45,653.58ZM676.34,671.46C677.57,670.81 678.53,669.9 679.23,668.72C679.93,667.55 680.27,666.22 680.27,664.74C680.27,662.46 679.51,660.61 678,659.2C676.49,657.79 674.55,657.09 672.18,657.09C669.81,657.09 667.82,657.79 666.31,659.2C664.8,660.61 664.04,662.45 664.04,664.74C664.04,666.22 664.39,667.55 665.08,668.72C665.78,669.89 666.74,670.8 667.97,671.46C669.2,672.11 670.6,672.44 672.17,672.44C673.74,672.44 675.1,672.11 676.33,671.46L676.34,671.46Z" style="fill:white;fill-rule:nonzero;"/>
        <path d="M713.93,653.59L713.93,677.15L709.84,677.15L709.84,673.42C708.89,674.73 707.69,675.72 706.24,676.4C704.79,677.08 703.19,677.42 701.44,677.42C699.16,677.42 697.11,676.92 695.3,675.91C693.49,674.9 692.08,673.49 691.05,671.66C690.03,669.84 689.52,667.74 689.52,665.37C689.52,663 690.03,660.91 691.05,659.1C692.07,657.29 693.49,655.88 695.3,654.88C697.11,653.88 699.15,653.37 701.44,653.37C703.13,653.37 704.69,653.69 706.11,654.33C707.53,654.97 708.72,655.91 709.67,657.15L709.67,653.59L713.94,653.59L713.93,653.59ZM705.84,672.64C707.05,671.94 708,670.97 708.69,669.71C709.37,668.45 709.71,667.01 709.71,665.38C709.71,663.75 709.37,662.31 708.69,661.05C708.01,659.79 707.06,658.82 705.84,658.14C704.62,657.46 703.28,657.12 701.79,657.12C700.3,657.12 698.92,657.46 697.72,658.14C696.52,658.82 695.57,659.79 694.87,661.05C694.17,662.31 693.83,663.75 693.83,665.38C693.83,667.01 694.18,668.45 694.87,669.71C695.57,670.97 696.52,671.95 697.72,672.64C698.92,673.34 700.28,673.68 701.79,673.68C703.3,673.68 704.62,673.33 705.84,672.64Z" style="fill:white;fill-rule:nonzero;"/>
        <path d="M728.51,654.43C729.96,653.72 731.73,653.36 733.8,653.36L733.8,657.5C733.56,657.47 733.24,657.46 732.82,657.46C730.51,657.46 728.69,658.15 727.37,659.53C726.05,660.91 725.39,662.87 725.39,665.42L725.39,677.16L721.12,677.16L721.12,653.6L725.21,653.6L725.21,657.55C725.95,656.19 727.05,655.15 728.5,654.44L728.51,654.43Z" style="fill:white;fill-rule:nonzero;"/>
        <path d="M771.77,644.16L771.77,677.15L767.68,677.15L767.68,673.42C766.73,674.73 765.53,675.72 764.08,676.4C762.63,677.08 761.03,677.42 759.28,677.42C757,677.42 754.95,676.92 753.14,675.91C751.33,674.9 749.92,673.49 748.89,671.66C747.87,669.84 747.36,667.74 747.36,665.37C747.36,663 747.87,660.91 748.89,659.1C749.91,657.29 751.33,655.88 753.14,654.88C754.95,653.88 756.99,653.37 759.28,653.37C760.97,653.37 762.53,653.69 763.95,654.33C765.37,654.97 766.56,655.91 767.51,657.15L767.51,644.17L771.78,644.17L771.77,644.16ZM763.68,672.63C764.89,671.93 765.84,670.96 766.53,669.7C767.21,668.44 767.55,667 767.55,665.37C767.55,663.74 767.21,662.3 766.53,661.04C765.85,659.78 764.9,658.81 763.68,658.13C762.46,657.45 761.12,657.11 759.63,657.11C758.14,657.11 756.76,657.45 755.56,658.13C754.36,658.81 753.41,659.78 752.71,661.04C752.01,662.3 751.67,663.74 751.67,665.37C751.67,667 752.02,668.44 752.71,669.7C753.41,670.96 754.36,671.94 755.56,672.63C756.76,673.33 758.12,673.67 759.63,673.67C761.14,673.67 762.46,673.32 763.68,672.63Z" style="fill:white;fill-rule:nonzero;"/>
        <path d="M796.4,670.84L798.71,673.6C797.67,674.84 796.36,675.79 794.78,676.45C793.19,677.1 791.42,677.43 789.47,677.43C786.98,677.43 784.77,676.92 782.85,675.9C780.92,674.88 779.43,673.45 778.38,671.61C777.33,669.77 776.8,667.7 776.8,665.39C776.8,663.08 777.31,661.05 778.33,659.21C779.35,657.37 780.76,655.94 782.55,654.92C784.34,653.9 786.37,653.39 788.62,653.39C790.75,653.39 792.69,653.87 794.44,654.84C796.19,655.8 797.58,657.16 798.62,658.91C799.66,660.66 800.19,662.67 800.22,664.96L781.5,668.6C782.09,670.23 783.09,671.49 784.5,672.38C785.91,673.27 787.61,673.71 789.59,673.71C792.41,673.71 794.67,672.76 796.39,670.87L796.4,670.84ZM784.64,657.99C783.47,658.67 782.56,659.63 781.91,660.86C781.26,662.09 780.93,663.52 780.93,665.15L780.93,665.59L796,662.74C795.61,661.02 794.76,659.63 793.42,658.56C792.09,657.49 790.49,656.96 788.62,656.96C787.14,656.96 785.81,657.3 784.64,657.98L784.64,657.99Z" style="fill:white;fill-rule:nonzero;"/>
        <path d="M838.9,653.58L838.9,673.95C838.9,678.07 837.88,681.11 835.83,683.09C833.79,685.06 830.73,686.05 826.67,686.05C824.45,686.05 822.33,685.75 820.31,685.14C818.29,684.53 816.67,683.66 815.42,682.54L817.46,679.25C818.56,680.2 819.91,680.95 821.53,681.49C823.14,682.04 824.81,682.31 826.53,682.31C829.29,682.31 831.32,681.66 832.64,680.35C833.96,679.05 834.62,677.06 834.62,674.39L834.62,672.52C833.61,673.74 832.38,674.65 830.91,675.25C829.44,675.86 827.85,676.16 826.13,676.16C823.88,676.16 821.84,675.68 820.02,674.72C818.2,673.76 816.77,672.41 815.73,670.67C814.69,668.93 814.17,666.96 814.17,664.73C814.17,662.5 814.69,660.53 815.73,658.79C816.77,657.06 818.2,655.72 820.02,654.77C821.84,653.82 823.88,653.35 826.13,653.35C827.91,653.35 829.56,653.68 831.09,654.33C832.62,654.98 833.87,655.95 834.85,657.22L834.85,653.58L838.9,653.58ZM830.79,671.46C832.02,670.81 832.98,669.9 833.68,668.72C834.38,667.55 834.72,666.22 834.72,664.74C834.72,662.46 833.96,660.61 832.45,659.2C830.94,657.79 829,657.09 826.63,657.09C824.26,657.09 822.27,657.79 820.76,659.2C819.25,660.61 818.49,662.45 818.49,664.74C818.49,666.22 818.84,667.55 819.53,668.72C820.23,669.89 821.19,670.8 822.42,671.46C823.65,672.11 825.05,672.44 826.62,672.44C828.19,672.44 829.55,672.11 830.78,671.46L830.79,671.46Z" style="fill:white;fill-rule:nonzero;"/>
        <path d="M863.57,670.84L865.88,673.6C864.84,674.84 863.53,675.79 861.95,676.45C860.36,677.1 858.59,677.43 856.64,677.43C854.15,677.43 851.94,676.92 850.02,675.9C848.09,674.88 846.6,673.45 845.55,671.61C844.5,669.77 843.97,667.7 843.97,665.39C843.97,663.08 844.48,661.05 845.5,659.21C846.52,657.37 847.93,655.94 849.72,654.92C851.51,653.9 853.54,653.39 855.79,653.39C857.92,653.39 859.86,653.87 861.61,654.84C863.36,655.8 864.75,657.16 865.79,658.91C866.83,660.66 867.36,662.67 867.39,664.96L848.67,668.6C849.26,670.23 850.26,671.49 851.67,672.38C853.08,673.27 854.78,673.71 856.76,673.71C859.58,673.71 861.84,672.76 863.56,670.87L863.57,670.84ZM851.81,657.99C850.64,658.67 849.73,659.63 849.08,660.86C848.43,662.09 848.1,663.52 848.1,665.15L848.1,665.59L863.17,662.74C862.78,661.02 861.93,659.63 860.59,658.56C859.26,657.49 857.66,656.96 855.79,656.96C854.31,656.96 852.98,657.3 851.81,657.98L851.81,657.99Z" style="fill:white;fill-rule:nonzero;"/>
        <path d="M892.18,655.96C893.94,657.7 894.82,660.24 894.82,663.58L894.82,677.14L890.55,677.14L890.55,664.07C890.55,661.79 890,660.07 888.91,658.91C887.81,657.75 886.24,657.18 884.2,657.18C881.89,657.18 880.06,657.85 878.73,659.2C877.4,660.55 876.73,662.48 876.73,665L876.73,677.14L872.46,677.14L872.46,653.58L876.55,653.58L876.55,657.14C877.41,655.92 878.57,654.99 880.04,654.34C881.51,653.69 883.17,653.36 885.04,653.36C888.03,653.36 890.41,654.23 892.18,655.96Z" style="fill:white;fill-rule:nonzero;"/>
        <path d="M914.25,675.77C913.63,676.3 912.86,676.71 911.94,676.99C911.02,677.27 910.07,677.41 909.09,677.41C906.72,677.41 904.88,676.77 903.58,675.5C902.28,674.23 901.62,672.4 901.62,670.03L901.62,648.42L905.89,648.42L905.89,653.58L912.65,653.58L912.65,657.09L905.89,657.09L905.89,669.85C905.89,671.12 906.21,672.1 906.85,672.78C907.49,673.46 908.4,673.8 909.58,673.8C910.88,673.8 912,673.43 912.91,672.69L914.24,675.76L914.25,675.77Z" style="fill:white;fill-rule:nonzero;"/>
        <path d="M935.15,670.84L937.46,673.6C936.42,674.84 935.11,675.79 933.53,676.45C931.94,677.1 930.17,677.43 928.22,677.43C925.73,677.43 923.52,676.92 921.6,675.9C919.67,674.88 918.18,673.45 917.13,671.61C916.08,669.77 915.55,667.7 915.55,665.39C915.55,663.08 916.06,661.05 917.08,659.21C918.1,657.37 919.51,655.94 921.3,654.92C923.09,653.9 925.12,653.39 927.37,653.39C929.5,653.39 931.44,653.87 933.19,654.84C934.94,655.8 936.33,657.16 937.37,658.91C938.41,660.66 938.94,662.67 938.97,664.96L920.25,668.6C920.84,670.23 921.84,671.49 923.25,672.38C924.66,673.27 926.36,673.71 928.34,673.71C931.16,673.71 933.42,672.76 935.14,670.87L935.15,670.84ZM923.39,657.99C922.22,658.67 921.31,659.63 920.66,660.86C920.01,662.09 919.68,663.52 919.68,665.15L919.68,665.59L934.75,662.74C934.36,661.02 933.51,659.63 932.17,658.56C930.84,657.49 929.24,656.96 927.37,656.96C925.89,656.96 924.56,657.3 923.39,657.98L923.39,657.99Z" style="fill:white;fill-rule:nonzero;"/>
    </g>
</svg>
