<svg width="896" height="386" viewBox="0 0 896 386" fill="none" xmlns="http://www.w3.org/2000/svg">
<path d="M366.82 171.22C360.35 73.9499 278.83 -0.43006 182.51 0.78994V365.85C187.23 365.9 191.98 365.83 196.77 365.51C297.38 358.82 373.51 271.84 366.82 171.23V171.22Z" fill="white"/>
<path d="M474.98 110.91C474.98 99.7699 478.47 91.4099 485.46 85.8399C492.44 80.2699 502.75 77.4799 516.39 77.4799C529.26 77.4799 540.38 80.1699 549.79 85.4699C551.77 78.2999 554.42 71.6299 557.73 65.4899C559.38 62.4399 561.17 59.5399 563.08 56.7899C556.87 53.2799 549.59 50.5999 541.23 48.7399C532.62 46.8299 523.45 45.8799 513.71 45.8799C489.02 45.8799 469.82 51.5999 456.1 63.0499C442.38 74.4999 435.52 90.5299 435.52 111.14V198.3H474.98V151.34H545.13V121.57H474.98V110.9V110.91Z" fill="white"/>
<path d="M683.42 54.5799C694.41 60.3799 702.96 68.9299 709.06 80.2299C715.16 91.5299 718.22 105.19 718.22 121.22V198.31H681.13V163.9H607.86V198.31H571.22V121.22C571.22 105.19 574.27 91.5299 580.38 80.2299C586.48 68.9299 595.04 60.3899 606.03 54.5799C617.02 48.7799 629.92 45.8799 644.73 45.8799C659.54 45.8799 672.44 48.7799 683.43 54.5799H683.42ZM681.13 134.13V117.78C681.13 104.5 677.85 94.4599 671.28 87.6699C664.72 80.8799 655.78 77.4799 644.49 77.4799C633.2 77.4799 624.07 80.8799 617.59 87.6699C611.1 94.4599 607.86 104.5 607.86 117.78V134.13H681.13Z" fill="white"/>
<path d="M858.67 55.7299C869.13 60.4599 877.18 67.1799 882.83 75.8799C888.47 84.5799 891.3 94.8799 891.3 106.79C891.3 118.7 888.47 128.81 882.83 137.59C877.18 146.37 869.13 153.09 858.67 157.74C848.21 162.4 835.89 164.72 821.69 164.72H781.34V198.3H744.25V48.6299H821.69C835.89 48.6299 848.21 50.9999 858.67 55.7299ZM845.05 127.28C850.85 122.47 853.75 115.64 853.75 106.79C853.75 97.9399 850.85 90.8799 845.05 86.0699C839.25 81.2599 830.77 78.8599 819.63 78.8599H781.34V134.5H819.63C830.77 134.5 839.24 132.1 845.05 127.28Z" fill="white"/>
<path d="M94.5 235.89L26.08 276.14C32.11 286.39 39.18 296.09 47.11 304.97L106.33 252.11C101.86 247.11 97.88 241.65 94.49 235.89H94.5Z" fill="white"/>
<path d="M121.09 265.69L73.4 329.15C75.49 330.72 77.61 332.25 79.76 333.73L124.8 268.37C123.55 267.51 122.31 266.61 121.09 265.69Z" fill="white"/>
<path d="M125.77 356.64C137.08 360.39 148.8 363.03 160.6 364.49L170.35 285.71C163.72 284.89 157.14 283.4 150.77 281.29L125.77 356.64Z" fill="white"/>
<path d="M80.52 189.74C80.41 187.93 80.35 186.13 80.35 184.33L0.970001 184.73C0.990001 187.94 1.09 191.21 1.28 194.43C1.79 203.04 2.92 211.71 4.66 220.19L82.44 204.33C81.46 199.51 80.82 194.6 80.53 189.73L80.52 189.74Z" fill="white"/>
<path d="M85.39 215.57L9.84 239.96C11.46 244.97 13.32 249.97 15.38 254.84L88.5 223.94C87.34 221.2 86.29 218.38 85.39 215.57Z" fill="white"/>
<path d="M130.47 272L89.76 340.14C94.29 342.84 98.99 345.38 103.75 347.69L138.34 276.24C135.67 274.95 133.02 273.52 130.48 272H130.47Z" fill="white"/>
<path d="M85.61 151.41L10.38 126.08C9.52 128.62 8.73 131.17 7.99 133.75L84.31 155.6C84.71 154.19 85.15 152.79 85.61 151.41Z" fill="white"/>
<path d="M105.51 116.56L45.54 64.55C37.77 73.52 30.83 83.29 24.94 93.61L93.86 132.99C97.19 127.16 101.11 121.63 105.51 116.56Z" fill="white"/>
<path d="M82.66 162.13L5.09 145.29C3.97 150.46 3.06 155.73 2.4 160.95L81.15 170.93C81.52 168 82.03 165.04 82.66 162.13Z" fill="white"/>
<path d="M121.9 101.36L74.56 37.6401C70.32 40.7901 66.18 44.1501 62.25 47.6401L114.94 107.01C117.15 105.04 119.5 103.14 121.9 101.36Z" fill="white"/>
<path d="M162.5 83.3C164.67 82.86 166.88 82.4801 169.07 82.1801L158.16 3.55005C154.32 4.08005 150.44 4.75005 146.63 5.52005C138.81 7.12005 131.05 9.23006 123.56 11.8101L149.4 86.8701C153.64 85.4101 158.04 84.2101 162.49 83.3H162.5Z" fill="white"/>
<path d="M131.15 95.2399L91.13 26.6799C88.83 28.0199 86.58 29.4099 84.36 30.8399L127.37 97.5499C128.61 96.7499 129.87 95.9799 131.15 95.2299V95.2399Z" fill="white"/>
<path d="M470.1 239.96C485.03 239.96 499.51 248.86 506.14 263.79C508.55 269.22 509.76 274.8 509.76 280.23C509.76 295.31 501.32 309.33 487.14 315.67C482.17 317.93 477.04 318.99 471.91 318.99C456.83 318.99 442.35 310.09 435.72 295.16C433.46 289.73 432.25 284.15 432.25 278.57C432.25 263.64 440.54 249.47 454.87 243.13C459.84 241.02 464.97 239.96 470.1 239.96ZM450.19 269.22C450.19 274.8 451.85 280.98 454.41 286.86C459.23 297.57 467.23 306.92 476.58 306.92C478.54 306.92 480.5 306.47 482.61 305.56C489.09 302.69 491.66 296.66 491.66 289.72C491.66 284.14 490 277.81 487.44 272.08C482.77 261.37 474.62 252.02 465.42 252.02C463.46 252.02 461.35 252.47 459.39 253.38C452.76 256.25 450.19 262.28 450.19 269.22Z" fill="white"/>
<path d="M614.26 310.38V314.91C614.26 316.42 613.35 317.17 612 317.17H570.98C569.62 317.17 568.72 316.42 568.72 314.91V310.38C568.72 308.87 569.62 308.12 571.13 308.12C576.86 308.12 579.12 301.94 578.97 293.8V271.03C578.97 262.89 579.72 253.08 568.11 253.08C560.72 253.08 552.43 259.57 549.86 266.05V293.8C549.86 301.94 553.48 308.12 560.87 308.12H561.17C562.68 308.12 563.43 308.87 563.43 310.38V314.91C563.43 316.42 562.68 317.17 561.17 317.17H517.29C515.78 317.17 515.03 316.42 515.03 314.91V310.38C515.03 308.87 515.78 308.12 517.29 308.12H517.6C524.99 308.12 528.61 301.94 528.61 293.8V274.8C528.61 266.81 528.01 258.36 519.71 257.46C518.2 257.31 517.9 256.56 517.9 255.5V250.37C517.9 249.16 518.65 248.71 520.16 248.41C534.48 246.15 545.94 240.27 549.87 237.4C550.17 237.25 550.32 237.1 550.62 237.1H550.92C551.07 237.1 551.22 237.1 551.22 237.25L548.51 257.16C552.73 250.37 560.72 239.82 574.6 239.82C596.17 239.82 600.24 254.45 600.24 268.92V293.8C600.24 301.94 603.86 308.12 611.25 308.12H612C613.36 308.12 614.26 308.87 614.26 310.38Z" fill="white"/>
<path d="M663.55 308.12C664.91 308.12 665.81 308.87 665.81 310.38V314.91C665.81 316.42 664.91 317.17 663.55 317.17H620.27C618.76 317.17 618.01 316.42 618.01 314.91V310.38C618.01 308.87 618.76 308.12 620.27 308.12C627.66 308.12 631.43 301.94 631.28 293.8V253.89C631.28 245.75 630.68 237.45 622.23 236.55C620.87 236.4 620.42 235.65 620.57 234.59V229.46C620.57 228.25 621.33 227.95 622.68 227.5C638.66 222.22 646.96 216.49 651.03 213.48C651.33 213.33 651.48 213.18 651.63 213.18H652.08C652.18 213.18 652.28 213.28 652.38 213.48V293.81C652.38 301.95 656.15 308.13 663.54 308.13L663.55 308.12Z" fill="white"/>
<path d="M718.59 310.38V314.91C718.59 316.42 717.53 317.17 716.03 317.17H673.35C671.84 317.17 670.78 316.42 670.78 314.91V310.38C670.78 308.87 671.53 308.12 673.04 308.12H673.34C680.73 308.12 684.35 301.94 684.2 293.8V277.81C684.2 271.02 683.6 262.73 675.3 261.82C673.79 261.67 673.49 260.92 673.49 259.86V254.73C673.49 253.52 674.24 253.22 675.75 252.77C691.58 247.49 699.42 241.61 703.5 237.39C703.65 237.24 703.95 237.09 704.1 237.09H704.4C704.6 237.09 704.75 237.14 704.85 237.24V293.79C704.85 301.93 708.47 308.11 715.86 308.11H716.31C717.82 308.11 718.57 308.86 718.57 310.37L718.59 310.38ZM681.58 232.02C678.87 229.46 677.81 227.2 677.81 224.48C677.81 221.76 678.87 219.65 681.58 216.94C684.14 214.23 686.4 213.17 689.12 213.17C691.84 213.17 693.94 214.23 696.66 216.94C699.38 219.65 700.43 221.76 700.43 224.48C700.43 227.2 699.37 229.45 696.66 232.02C693.95 234.74 691.84 235.79 689.12 235.79C686.4 235.79 684.14 234.73 681.58 232.02Z" fill="white"/>
<path d="M824.14 310.38V314.91C824.14 316.42 823.23 317.17 821.88 317.17H780.86C779.5 317.17 778.6 316.42 778.6 314.91V310.38C778.6 308.87 779.5 308.12 781.01 308.12C786.74 308.12 789 301.94 788.85 293.8V271.03C788.85 262.89 789.6 253.08 777.99 253.08C770.6 253.08 762.31 259.57 759.74 266.05V293.8C759.74 301.94 763.36 308.12 770.75 308.12H771.05C772.56 308.12 773.31 308.87 773.31 310.38V314.91C773.31 316.42 772.56 317.17 771.05 317.17H727.17C725.66 317.17 724.91 316.42 724.91 314.91V310.38C724.91 308.87 725.66 308.12 727.17 308.12H727.48C734.87 308.12 738.49 301.94 738.49 293.8V274.8C738.49 266.81 737.89 258.36 729.59 257.46C728.08 257.31 727.78 256.56 727.78 255.5V250.37C727.78 249.16 728.53 248.71 730.04 248.41C744.36 246.15 755.82 240.27 759.75 237.4C760.05 237.25 760.2 237.1 760.5 237.1H760.8C760.95 237.1 761.1 237.1 761.1 237.25L758.39 257.16C762.61 250.37 770.6 239.82 784.48 239.82C806.05 239.82 810.12 254.45 810.12 268.92V293.8C810.12 301.94 813.74 308.12 821.13 308.12H821.88C823.24 308.12 824.14 308.87 824.14 310.38Z" fill="white"/>
<path d="M868.76 306.46C875.25 306.46 882.79 302.99 888.06 295.3C888.36 294.85 888.96 294.7 889.27 294.7C890.17 294.7 890.48 294.7 895.3 297.56C895.75 297.86 895.9 298.31 895.9 298.77C895.9 299.52 895.45 300.58 895 301.33C889.27 311.89 880.07 318.97 864.69 318.97C839.66 318.97 824.27 300.57 824.27 278.71C824.27 250.81 842.37 240.1 860.16 240.1C880.07 240.1 891.22 257.74 891.22 269.2C891.22 269.95 890.92 270.71 889.86 271.01L846.13 290.16C849.6 298.61 857.14 306.45 868.75 306.45L868.76 306.46ZM856.4 252.02C848.11 252.02 842.98 259.41 842.98 269.21C842.98 272.22 843.13 277.2 844.34 280.82L868.62 268.61C868.62 258.96 863.34 252.02 856.41 252.02H856.4Z" fill="white"/>
<path d="M455.8 353.88C457.61 354.89 459.02 356.29 460.05 358.1C461.08 359.91 461.58 362 461.58 364.37C461.58 366.74 461.07 368.84 460.05 370.66C459.03 372.48 457.61 373.9 455.8 374.91C453.99 375.92 451.95 376.42 449.67 376.42C447.92 376.42 446.32 376.08 444.87 375.4C443.42 374.72 442.22 373.73 441.27 372.42V376.15H437.18V343.16H441.45V356.14C442.4 354.9 443.58 353.95 445.01 353.32C446.43 352.68 447.99 352.36 449.68 352.36C451.96 352.36 454.01 352.87 455.81 353.87L455.8 353.88ZM453.38 371.64C454.58 370.94 455.53 369.97 456.23 368.71C456.93 367.45 457.27 366.01 457.27 364.38C457.27 362.75 456.92 361.31 456.23 360.05C455.53 358.79 454.59 357.82 453.38 357.14C452.18 356.46 450.82 356.12 449.31 356.12C447.8 356.12 446.48 356.46 445.26 357.14C444.04 357.82 443.1 358.79 442.41 360.05C441.73 361.31 441.39 362.75 441.39 364.38C441.39 366.01 441.73 367.45 442.41 368.71C443.09 369.97 444.04 370.95 445.26 371.64C446.47 372.34 447.82 372.68 449.31 372.68C450.8 372.68 452.18 372.33 453.38 371.64Z" fill="white"/>
<path d="M488.56 352.59V372.95C488.56 377.07 487.6 380.11 485.67 382.09C483.74 384.06 480.85 385.05 477 385.05C474.89 385.05 472.89 384.75 470.98 384.14C469.07 383.53 467.51 382.66 466.29 381.54L468.38 378.25C469.42 379.2 470.67 379.94 472.14 380.47C473.61 381 475.16 381.27 476.79 381.27C479.37 381.27 481.26 380.63 482.48 379.34C483.69 378.05 484.3 376.07 484.3 373.4V371.67C483.44 372.8 482.33 373.66 480.97 374.27C479.61 374.88 478.12 375.18 476.52 375.18C473.38 375.18 470.9 374.32 469.1 372.6C467.3 370.88 466.39 368.33 466.39 364.95V352.59H470.66V364.46C470.66 366.71 471.21 368.43 472.31 369.59C473.41 370.76 474.98 371.35 477.02 371.35C479.27 371.35 481.05 370.67 482.36 369.3C483.66 367.94 484.32 366.01 484.32 363.52V352.58H488.59L488.56 352.59Z" fill="white"/>
<path d="M507.5 345.03H511.95V372.28H528.8V376.15H507.5V345.03Z" fill="white"/>
<path d="M554.01 360.41H558.28V376.15H554.37V374.06C552.09 375.69 549.2 376.51 545.7 376.51C542.88 376.51 540.27 375.89 537.85 374.64C535.43 373.4 533.51 371.58 532.07 369.19C530.63 366.8 529.91 363.98 529.91 360.72C529.91 357.64 530.63 354.88 532.07 352.45C533.51 350.02 535.49 348.12 538.03 346.74C540.56 345.36 543.42 344.67 546.59 344.67C549.08 344.67 551.34 345.08 553.37 345.89C555.4 346.7 557.13 347.9 558.55 349.47L555.79 352.23C553.3 349.83 550.29 348.63 546.77 348.63C544.4 348.63 542.27 349.15 540.39 350.19C538.51 351.23 537.03 352.67 535.97 354.5C534.9 356.34 534.37 358.41 534.37 360.72C534.37 363.18 534.91 365.32 535.99 367.12C537.07 368.93 538.5 370.3 540.28 371.23C542.06 372.16 543.98 372.63 546.06 372.63C547.51 372.63 548.93 372.39 550.31 371.9C551.69 371.41 552.93 370.69 554.02 369.74V360.41H554.01Z" fill="white"/>
<path d="M578.19 374.53C576.95 373.27 576.32 371.5 576.32 369.22V343.17H580.59V368.87C580.59 370.14 580.89 371.12 581.5 371.8C582.11 372.48 583.02 372.82 584.23 372.82C584.97 372.82 585.67 372.67 586.32 372.38L586.54 375.89C585.56 376.24 584.54 376.42 583.47 376.42C581.19 376.42 579.42 375.79 578.18 374.53H578.19Z" fill="white"/>
<path d="M611.67 352.59V376.15H607.62V372.59C606.76 373.81 605.63 374.75 604.22 375.41C602.81 376.08 601.28 376.41 599.62 376.41C596.48 376.41 594 375.54 592.2 373.81C590.39 372.08 589.49 369.52 589.49 366.14V352.58H593.76V365.65C593.76 367.93 594.31 369.66 595.41 370.83C596.51 372 598.08 372.59 600.12 372.59C602.37 372.59 604.15 371.91 605.46 370.54C606.76 369.18 607.42 367.25 607.42 364.76V352.58H611.69L611.67 352.59Z" fill="white"/>
<path d="M641.45 352.59V372.95C641.45 377.07 640.43 380.11 638.38 382.09C636.34 384.06 633.28 385.05 629.22 385.05C627 385.05 624.88 384.75 622.86 384.14C620.84 383.53 619.22 382.66 617.97 381.54L620.01 378.25C621.11 379.2 622.46 379.95 624.08 380.49C625.69 381.04 627.36 381.31 629.08 381.31C631.84 381.31 633.87 380.66 635.19 379.35C636.51 378.05 637.17 376.06 637.17 373.39V371.52C636.16 372.74 634.93 373.65 633.46 374.25C631.99 374.86 630.4 375.16 628.68 375.16C626.43 375.16 624.39 374.68 622.57 373.72C620.75 372.76 619.32 371.41 618.28 369.67C617.24 367.93 616.72 365.96 616.72 363.73C616.72 361.5 617.24 359.53 618.28 357.79C619.32 356.06 620.75 354.72 622.57 353.77C624.39 352.82 626.43 352.35 628.68 352.35C630.46 352.35 632.11 352.68 633.64 353.33C635.17 353.98 636.42 354.95 637.4 356.22V352.58H641.45V352.59ZM633.34 370.46C634.57 369.81 635.53 368.9 636.23 367.72C636.93 366.55 637.27 365.22 637.27 363.74C637.27 361.46 636.51 359.61 635 358.2C633.49 356.79 631.55 356.09 629.18 356.09C626.81 356.09 624.82 356.79 623.31 358.2C621.8 359.61 621.04 361.45 621.04 363.74C621.04 365.22 621.39 366.55 622.08 367.72C622.78 368.89 623.74 369.8 624.97 370.46C626.2 371.11 627.6 371.44 629.17 371.44C630.74 371.44 632.1 371.11 633.33 370.46H633.34Z" fill="white"/>
<path d="M670.93 352.59V376.15H666.84V372.42C665.89 373.73 664.69 374.72 663.24 375.4C661.79 376.08 660.19 376.42 658.44 376.42C656.16 376.42 654.11 375.92 652.3 374.91C650.49 373.9 649.08 372.49 648.05 370.66C647.03 368.84 646.52 366.74 646.52 364.37C646.52 362 647.03 359.91 648.05 358.1C649.07 356.29 650.49 354.88 652.3 353.88C654.11 352.88 656.15 352.37 658.44 352.37C660.13 352.37 661.69 352.69 663.11 353.33C664.53 353.97 665.72 354.91 666.67 356.15V352.59H670.94H670.93ZM662.84 371.64C664.05 370.94 665 369.97 665.69 368.71C666.37 367.45 666.71 366.01 666.71 364.38C666.71 362.75 666.37 361.31 665.69 360.05C665.01 358.79 664.06 357.82 662.84 357.14C661.62 356.46 660.28 356.12 658.79 356.12C657.3 356.12 655.92 356.46 654.72 357.14C653.52 357.82 652.57 358.79 651.87 360.05C651.17 361.31 650.83 362.75 650.83 364.38C650.83 366.01 651.18 367.45 651.87 368.71C652.57 369.97 653.52 370.95 654.72 371.64C655.92 372.34 657.28 372.68 658.79 372.68C660.3 372.68 661.62 372.33 662.84 371.64Z" fill="white"/>
<path d="M685.51 353.43C686.96 352.72 688.73 352.36 690.8 352.36V356.5C690.56 356.47 690.24 356.46 689.82 356.46C687.51 356.46 685.69 357.15 684.37 358.53C683.05 359.91 682.39 361.87 682.39 364.42V376.16H678.12V352.6H682.21V356.55C682.95 355.19 684.05 354.15 685.5 353.44L685.51 353.43Z" fill="white"/>
<path d="M728.77 343.16V376.15H724.68V372.42C723.73 373.73 722.53 374.72 721.08 375.4C719.63 376.08 718.03 376.42 716.28 376.42C714 376.42 711.95 375.92 710.14 374.91C708.33 373.9 706.92 372.49 705.89 370.66C704.87 368.84 704.36 366.74 704.36 364.37C704.36 362 704.87 359.91 705.89 358.1C706.91 356.29 708.33 354.88 710.14 353.88C711.95 352.88 713.99 352.37 716.28 352.37C717.97 352.37 719.53 352.69 720.95 353.33C722.37 353.97 723.56 354.91 724.51 356.15V343.17H728.78L728.77 343.16ZM720.68 371.63C721.89 370.93 722.84 369.96 723.53 368.7C724.21 367.44 724.55 366 724.55 364.37C724.55 362.74 724.21 361.3 723.53 360.04C722.85 358.78 721.9 357.81 720.68 357.13C719.46 356.45 718.12 356.11 716.63 356.11C715.14 356.11 713.76 356.45 712.56 357.13C711.36 357.81 710.41 358.78 709.71 360.04C709.01 361.3 708.67 362.74 708.67 364.37C708.67 366 709.02 367.44 709.71 368.7C710.41 369.96 711.36 370.94 712.56 371.63C713.76 372.33 715.12 372.67 716.63 372.67C718.14 372.67 719.46 372.32 720.68 371.63Z" fill="white"/>
<path d="M753.4 369.84L755.71 372.6C754.67 373.84 753.36 374.79 751.78 375.45C750.19 376.1 748.42 376.43 746.47 376.43C743.98 376.43 741.77 375.92 739.85 374.9C737.92 373.88 736.43 372.45 735.38 370.61C734.33 368.77 733.8 366.7 733.8 364.39C733.8 362.08 734.31 360.05 735.33 358.21C736.35 356.37 737.76 354.94 739.55 353.92C741.34 352.9 743.37 352.39 745.62 352.39C747.75 352.39 749.69 352.87 751.44 353.84C753.19 354.8 754.58 356.16 755.62 357.91C756.66 359.66 757.19 361.67 757.22 363.96L738.5 367.6C739.09 369.23 740.09 370.49 741.5 371.38C742.91 372.27 744.61 372.71 746.59 372.71C749.41 372.71 751.67 371.76 753.39 369.87L753.4 369.84ZM741.64 356.99C740.47 357.67 739.56 358.63 738.91 359.86C738.26 361.09 737.93 362.52 737.93 364.15V364.59L753 361.74C752.61 360.02 751.76 358.63 750.42 357.56C749.09 356.49 747.49 355.96 745.62 355.96C744.14 355.96 742.81 356.3 741.64 356.98V356.99Z" fill="white"/>
<path d="M795.9 352.59V372.95C795.9 377.07 794.88 380.11 792.83 382.09C790.79 384.06 787.73 385.05 783.67 385.05C781.45 385.05 779.33 384.75 777.31 384.14C775.29 383.53 773.67 382.66 772.42 381.54L774.46 378.25C775.56 379.2 776.91 379.95 778.53 380.49C780.14 381.04 781.81 381.31 783.53 381.31C786.29 381.31 788.32 380.66 789.64 379.35C790.96 378.05 791.62 376.06 791.62 373.39V371.52C790.61 372.74 789.38 373.65 787.91 374.25C786.44 374.86 784.85 375.16 783.13 375.16C780.88 375.16 778.84 374.68 777.02 373.72C775.2 372.76 773.77 371.41 772.73 369.67C771.69 367.93 771.17 365.96 771.17 363.73C771.17 361.5 771.69 359.53 772.73 357.79C773.77 356.06 775.2 354.72 777.02 353.77C778.84 352.82 780.88 352.35 783.13 352.35C784.91 352.35 786.56 352.68 788.09 353.33C789.62 353.98 790.87 354.95 791.85 356.22V352.58H795.9V352.59ZM787.79 370.46C789.02 369.81 789.98 368.9 790.68 367.72C791.38 366.55 791.72 365.22 791.72 363.74C791.72 361.46 790.96 359.61 789.45 358.2C787.94 356.79 786 356.09 783.63 356.09C781.26 356.09 779.27 356.79 777.76 358.2C776.25 359.61 775.49 361.45 775.49 363.74C775.49 365.22 775.84 366.55 776.53 367.72C777.23 368.89 778.19 369.8 779.42 370.46C780.65 371.11 782.05 371.44 783.62 371.44C785.19 371.44 786.55 371.11 787.78 370.46H787.79Z" fill="white"/>
<path d="M820.57 369.84L822.88 372.6C821.84 373.84 820.53 374.79 818.95 375.45C817.36 376.1 815.59 376.43 813.64 376.43C811.15 376.43 808.94 375.92 807.02 374.9C805.09 373.88 803.6 372.45 802.55 370.61C801.5 368.77 800.97 366.7 800.97 364.39C800.97 362.08 801.48 360.05 802.5 358.21C803.52 356.37 804.93 354.94 806.72 353.92C808.51 352.9 810.54 352.39 812.79 352.39C814.92 352.39 816.86 352.87 818.61 353.84C820.36 354.8 821.75 356.16 822.79 357.91C823.83 359.66 824.36 361.67 824.39 363.96L805.67 367.6C806.26 369.23 807.26 370.49 808.67 371.38C810.08 372.27 811.78 372.71 813.76 372.71C816.58 372.71 818.84 371.76 820.56 369.87L820.57 369.84ZM808.81 356.99C807.64 357.67 806.73 358.63 806.08 359.86C805.43 361.09 805.1 362.52 805.1 364.15V364.59L820.17 361.74C819.78 360.02 818.93 358.63 817.59 357.56C816.26 356.49 814.66 355.96 812.79 355.96C811.31 355.96 809.98 356.3 808.81 356.98V356.99Z" fill="white"/>
<path d="M849.18 354.96C850.94 356.7 851.82 359.24 851.82 362.58V376.14H847.55V363.07C847.55 360.79 847 359.07 845.91 357.91C844.81 356.75 843.24 356.18 841.2 356.18C838.89 356.18 837.06 356.85 835.73 358.2C834.4 359.55 833.73 361.48 833.73 364V376.14H829.46V352.58H833.55V356.14C834.41 354.92 835.57 353.99 837.04 353.34C838.51 352.69 840.17 352.36 842.04 352.36C845.03 352.36 847.41 353.23 849.18 354.96Z" fill="white"/>
<path d="M871.25 374.77C870.63 375.3 869.86 375.71 868.94 375.99C868.02 376.27 867.07 376.41 866.09 376.41C863.72 376.41 861.88 375.77 860.58 374.5C859.28 373.23 858.62 371.4 858.62 369.03V347.42H862.89V352.58H869.65V356.09H862.89V368.85C862.89 370.12 863.21 371.1 863.85 371.78C864.49 372.46 865.4 372.8 866.58 372.8C867.88 372.8 869 372.43 869.91 371.69L871.24 374.76L871.25 374.77Z" fill="white"/>
<path d="M892.15 369.84L894.46 372.6C893.42 373.84 892.11 374.79 890.53 375.45C888.94 376.1 887.17 376.43 885.22 376.43C882.73 376.43 880.52 375.92 878.6 374.9C876.67 373.88 875.18 372.45 874.13 370.61C873.08 368.77 872.55 366.7 872.55 364.39C872.55 362.08 873.06 360.05 874.08 358.21C875.1 356.37 876.51 354.94 878.3 353.92C880.09 352.9 882.12 352.39 884.37 352.39C886.5 352.39 888.44 352.87 890.19 353.84C891.94 354.8 893.33 356.16 894.37 357.91C895.41 359.66 895.94 361.67 895.97 363.96L877.25 367.6C877.84 369.23 878.84 370.49 880.25 371.38C881.66 372.27 883.36 372.71 885.34 372.71C888.16 372.71 890.42 371.76 892.14 369.87L892.15 369.84ZM880.39 356.99C879.22 357.67 878.31 358.63 877.66 359.86C877.01 361.09 876.68 362.52 876.68 364.15V364.59L891.75 361.74C891.36 360.02 890.51 358.63 889.17 357.56C887.84 356.49 886.24 355.96 884.37 355.96C882.89 355.96 881.56 356.3 880.39 356.98V356.99Z" fill="white"/>
</svg>
