<svg width="895" height="386" viewBox="0 0 895 386" fill="none" xmlns="http://www.w3.org/2000/svg">
<path d="M365.85 171.22C359.38 73.9499 277.86 -0.43006 181.54 0.78994V365.85C186.26 365.9 191.01 365.83 195.8 365.51C296.41 358.82 372.54 271.84 365.85 171.23V171.22Z" fill="#4F69F6"/>
<path d="M474.01 110.91C474.01 99.7699 477.5 91.4099 484.49 85.8399C491.47 80.2699 501.78 77.4799 515.42 77.4799C528.29 77.4799 539.41 80.1699 548.82 85.4699C550.8 78.2999 553.45 71.6299 556.76 65.4899C558.41 62.4399 560.2 59.5399 562.11 56.7899C555.9 53.2799 548.62 50.5999 540.26 48.7399C531.65 46.8299 522.48 45.8799 512.74 45.8799C488.05 45.8799 468.85 51.5999 455.13 63.0499C441.41 74.4999 434.55 90.5299 434.55 111.14V198.3H474.01V151.34H544.16V121.57H474.01V110.9V110.91Z" fill="#351B73"/>
<path d="M682.45 54.5799C693.44 60.3799 701.99 68.9299 708.09 80.2299C714.19 91.5299 717.25 105.19 717.25 121.22V198.31H680.16V163.9H606.89V198.31H570.25V121.22C570.25 105.19 573.3 91.5299 579.41 80.2299C585.51 68.9299 594.07 60.3899 605.06 54.5799C616.05 48.7799 628.95 45.8799 643.76 45.8799C658.57 45.8799 671.47 48.7799 682.46 54.5799H682.45ZM680.16 134.13V117.78C680.16 104.5 676.88 94.4599 670.31 87.6699C663.75 80.8799 654.81 77.4799 643.52 77.4799C632.23 77.4799 623.1 80.8799 616.62 87.6699C610.13 94.4599 606.89 104.5 606.89 117.78V134.13H680.16Z" fill="#351B73"/>
<path d="M857.7 55.7299C868.16 60.4599 876.21 67.1799 881.86 75.8799C887.5 84.5799 890.33 94.8799 890.33 106.79C890.33 118.7 887.5 128.81 881.86 137.59C876.21 146.37 868.16 153.09 857.7 157.74C847.24 162.4 834.92 164.72 820.72 164.72H780.37V198.3H743.28V48.6299H820.72C834.92 48.6299 847.24 50.9999 857.7 55.7299ZM844.08 127.28C849.88 122.47 852.78 115.64 852.78 106.79C852.78 97.9399 849.88 90.8799 844.08 86.0699C838.28 81.2599 829.8 78.8599 818.66 78.8599H780.37V134.5H818.66C829.8 134.5 838.27 132.1 844.08 127.28Z" fill="#351B73"/>
<path d="M93.53 235.89L25.11 276.14C31.14 286.39 38.21 296.09 46.14 304.97L105.36 252.11C100.89 247.11 96.91 241.65 93.52 235.89H93.53Z" fill="#4F69F6"/>
<path d="M120.12 265.69L72.4301 329.15C74.5201 330.72 76.6401 332.25 78.7901 333.73L123.83 268.37C122.58 267.51 121.34 266.61 120.12 265.69Z" fill="#4F69F6"/>
<path d="M124.8 356.64C136.11 360.39 147.83 363.03 159.63 364.49L169.38 285.71C162.75 284.89 156.17 283.4 149.8 281.29L124.8 356.64Z" fill="#4F69F6"/>
<path d="M79.55 189.74C79.44 187.93 79.38 186.13 79.38 184.33L0 184.73C0.02 187.94 0.119998 191.21 0.309998 194.43C0.819998 203.04 1.95 211.71 3.69 220.19L81.47 204.33C80.49 199.51 79.85 194.6 79.56 189.73L79.55 189.74Z" fill="#4F69F6"/>
<path d="M84.42 215.57L8.87 239.96C10.49 244.97 12.35 249.97 14.41 254.84L87.53 223.94C86.37 221.2 85.32 218.38 84.42 215.57Z" fill="#4F69F6"/>
<path d="M129.5 272L88.79 340.14C93.32 342.84 98.02 345.38 102.78 347.69L137.37 276.24C134.7 274.95 132.05 273.52 129.51 272H129.5Z" fill="#4F69F6"/>
<path d="M84.64 151.41L9.41002 126.08C8.55002 128.62 7.76002 131.17 7.02002 133.75L83.34 155.6C83.74 154.19 84.18 152.79 84.64 151.41Z" fill="#4F69F6"/>
<path d="M104.54 116.56L44.57 64.55C36.8 73.52 29.86 83.29 23.97 93.61L92.89 132.99C96.22 127.16 100.14 121.63 104.54 116.56Z" fill="#4F69F6"/>
<path d="M81.6901 162.13L4.12005 145.29C3.00005 150.46 2.09005 155.73 1.43005 160.95L80.1801 170.93C80.5501 168 81.0601 165.04 81.6901 162.13Z" fill="#4F69F6"/>
<path d="M120.93 101.36L73.59 37.6401C69.35 40.7901 65.21 44.1501 61.28 47.6401L113.97 107.01C116.18 105.04 118.53 103.14 120.93 101.36Z" fill="#4F69F6"/>
<path d="M161.53 83.3C163.7 82.86 165.91 82.4801 168.1 82.1801L157.19 3.55005C153.35 4.08005 149.47 4.75005 145.66 5.52005C137.84 7.12005 130.08 9.23006 122.59 11.8101L148.43 86.8701C152.67 85.4101 157.07 84.2101 161.52 83.3H161.53Z" fill="#4F69F6"/>
<path d="M130.18 95.2399L90.16 26.6799C87.86 28.0199 85.61 29.4099 83.39 30.8399L126.4 97.5499C127.64 96.7499 128.9 95.9799 130.18 95.2299V95.2399Z" fill="#4F69F6"/>
<path d="M469.13 239.96C484.06 239.96 498.54 248.86 505.17 263.79C507.58 269.22 508.79 274.8 508.79 280.23C508.79 295.31 500.35 309.33 486.17 315.67C481.2 317.93 476.07 318.99 470.94 318.99C455.86 318.99 441.38 310.09 434.75 295.16C432.49 289.73 431.28 284.15 431.28 278.57C431.28 263.64 439.57 249.47 453.9 243.13C458.87 241.02 464 239.96 469.13 239.96ZM449.22 269.22C449.22 274.8 450.88 280.98 453.44 286.86C458.26 297.57 466.26 306.92 475.61 306.92C477.57 306.92 479.53 306.47 481.64 305.56C488.12 302.69 490.69 296.66 490.69 289.72C490.69 284.14 489.03 277.81 486.47 272.08C481.8 261.37 473.65 252.02 464.45 252.02C462.49 252.02 460.38 252.47 458.42 253.38C451.79 256.25 449.22 262.28 449.22 269.22Z" fill="#4F69F6"/>
<path d="M613.29 310.38V314.91C613.29 316.42 612.38 317.17 611.03 317.17H570.01C568.65 317.17 567.75 316.42 567.75 314.91V310.38C567.75 308.87 568.65 308.12 570.16 308.12C575.89 308.12 578.15 301.94 578 293.8V271.03C578 262.89 578.75 253.08 567.14 253.08C559.75 253.08 551.46 259.57 548.89 266.05V293.8C548.89 301.94 552.51 308.12 559.9 308.12H560.2C561.71 308.12 562.46 308.87 562.46 310.38V314.91C562.46 316.42 561.71 317.17 560.2 317.17H516.32C514.81 317.17 514.06 316.42 514.06 314.91V310.38C514.06 308.87 514.81 308.12 516.32 308.12H516.63C524.02 308.12 527.64 301.94 527.64 293.8V274.8C527.64 266.81 527.04 258.36 518.74 257.46C517.23 257.31 516.93 256.56 516.93 255.5V250.37C516.93 249.16 517.68 248.71 519.19 248.41C533.51 246.15 544.97 240.27 548.9 237.4C549.2 237.25 549.35 237.1 549.65 237.1H549.95C550.1 237.1 550.25 237.1 550.25 237.25L547.54 257.16C551.76 250.37 559.75 239.82 573.63 239.82C595.2 239.82 599.27 254.45 599.27 268.92V293.8C599.27 301.94 602.89 308.12 610.28 308.12H611.03C612.39 308.12 613.29 308.87 613.29 310.38Z" fill="#4F69F6"/>
<path d="M662.58 308.12C663.94 308.12 664.84 308.87 664.84 310.38V314.91C664.84 316.42 663.94 317.17 662.58 317.17H619.3C617.79 317.17 617.04 316.42 617.04 314.91V310.38C617.04 308.87 617.79 308.12 619.3 308.12C626.69 308.12 630.46 301.94 630.31 293.8V253.89C630.31 245.75 629.71 237.45 621.26 236.55C619.9 236.4 619.45 235.65 619.6 234.59V229.46C619.6 228.25 620.36 227.95 621.71 227.5C637.69 222.22 645.99 216.49 650.06 213.48C650.36 213.33 650.51 213.18 650.66 213.18H651.11C651.21 213.18 651.31 213.28 651.41 213.48V293.81C651.41 301.95 655.18 308.13 662.57 308.13L662.58 308.12Z" fill="#4F69F6"/>
<path d="M717.62 310.38V314.91C717.62 316.42 716.56 317.17 715.06 317.17H672.38C670.87 317.17 669.81 316.42 669.81 314.91V310.38C669.81 308.87 670.56 308.12 672.07 308.12H672.37C679.76 308.12 683.38 301.94 683.23 293.8V277.81C683.23 271.02 682.63 262.73 674.33 261.82C672.82 261.67 672.52 260.92 672.52 259.86V254.73C672.52 253.52 673.27 253.22 674.78 252.77C690.61 247.49 698.45 241.61 702.53 237.39C702.68 237.24 702.98 237.09 703.13 237.09H703.43C703.63 237.09 703.78 237.14 703.88 237.24V293.79C703.88 301.93 707.5 308.11 714.89 308.11H715.34C716.85 308.11 717.6 308.86 717.6 310.37L717.62 310.38ZM680.61 232.02C677.9 229.46 676.84 227.2 676.84 224.48C676.84 221.76 677.9 219.65 680.61 216.94C683.17 214.23 685.43 213.17 688.15 213.17C690.87 213.17 692.97 214.23 695.69 216.94C698.41 219.65 699.46 221.76 699.46 224.48C699.46 227.2 698.4 229.45 695.69 232.02C692.98 234.74 690.87 235.79 688.15 235.79C685.43 235.79 683.17 234.73 680.61 232.02Z" fill="#4F69F6"/>
<path d="M823.17 310.38V314.91C823.17 316.42 822.26 317.17 820.91 317.17H779.89C778.53 317.17 777.63 316.42 777.63 314.91V310.38C777.63 308.87 778.53 308.12 780.04 308.12C785.77 308.12 788.03 301.94 787.88 293.8V271.03C787.88 262.89 788.63 253.08 777.02 253.08C769.63 253.08 761.34 259.57 758.77 266.05V293.8C758.77 301.94 762.39 308.12 769.78 308.12H770.08C771.59 308.12 772.34 308.87 772.34 310.38V314.91C772.34 316.42 771.59 317.17 770.08 317.17H726.2C724.69 317.17 723.94 316.42 723.94 314.91V310.38C723.94 308.87 724.69 308.12 726.2 308.12H726.51C733.9 308.12 737.52 301.94 737.52 293.8V274.8C737.52 266.81 736.92 258.36 728.62 257.46C727.11 257.31 726.81 256.56 726.81 255.5V250.37C726.81 249.16 727.56 248.71 729.07 248.41C743.39 246.15 754.85 240.27 758.78 237.4C759.08 237.25 759.23 237.1 759.53 237.1H759.83C759.98 237.1 760.13 237.1 760.13 237.25L757.42 257.16C761.64 250.37 769.63 239.82 783.51 239.82C805.08 239.82 809.15 254.45 809.15 268.92V293.8C809.15 301.94 812.77 308.12 820.16 308.12H820.91C822.27 308.12 823.17 308.87 823.17 310.38Z" fill="#4F69F6"/>
<path d="M867.79 306.46C874.28 306.46 881.82 302.99 887.09 295.3C887.39 294.85 887.99 294.7 888.3 294.7C889.2 294.7 889.51 294.7 894.33 297.56C894.78 297.86 894.93 298.31 894.93 298.77C894.93 299.52 894.48 300.58 894.03 301.33C888.3 311.89 879.1 318.97 863.72 318.97C838.69 318.97 823.3 300.57 823.3 278.71C823.3 250.81 841.4 240.1 859.19 240.1C879.1 240.1 890.25 257.74 890.25 269.2C890.25 269.95 889.95 270.71 888.89 271.01L845.16 290.16C848.63 298.61 856.17 306.45 867.78 306.45L867.79 306.46ZM855.43 252.02C847.14 252.02 842.01 259.41 842.01 269.21C842.01 272.22 842.16 277.2 843.37 280.82L867.65 268.61C867.65 258.96 862.37 252.02 855.44 252.02H855.43Z" fill="#4F69F6"/>
<path d="M454.83 353.88C456.64 354.89 458.05 356.29 459.08 358.1C460.11 359.91 460.61 362 460.61 364.37C460.61 366.74 460.1 368.84 459.08 370.66C458.06 372.48 456.64 373.9 454.83 374.91C453.02 375.92 450.98 376.42 448.7 376.42C446.95 376.42 445.35 376.08 443.9 375.4C442.45 374.72 441.25 373.73 440.3 372.42V376.15H436.21V343.16H440.48V356.14C441.43 354.9 442.61 353.95 444.04 353.32C445.46 352.68 447.02 352.36 448.71 352.36C450.99 352.36 453.04 352.87 454.84 353.87L454.83 353.88ZM452.41 371.64C453.61 370.94 454.56 369.97 455.26 368.71C455.96 367.45 456.3 366.01 456.3 364.38C456.3 362.75 455.95 361.31 455.26 360.05C454.56 358.79 453.62 357.82 452.41 357.14C451.21 356.46 449.85 356.12 448.34 356.12C446.83 356.12 445.51 356.46 444.29 357.14C443.07 357.82 442.13 358.79 441.44 360.05C440.76 361.31 440.42 362.75 440.42 364.38C440.42 366.01 440.76 367.45 441.44 368.71C442.12 369.97 443.07 370.95 444.29 371.64C445.5 372.34 446.85 372.68 448.34 372.68C449.83 372.68 451.21 372.33 452.41 371.64Z" fill="#808080"/>
<path d="M487.59 352.59V372.95C487.59 377.07 486.63 380.11 484.7 382.09C482.77 384.06 479.88 385.05 476.03 385.05C473.92 385.05 471.92 384.75 470.01 384.14C468.1 383.53 466.54 382.66 465.32 381.54L467.41 378.25C468.45 379.2 469.7 379.94 471.17 380.47C472.64 381 474.19 381.27 475.82 381.27C478.4 381.27 480.29 380.63 481.51 379.34C482.72 378.05 483.33 376.07 483.33 373.4V371.67C482.47 372.8 481.36 373.66 480 374.27C478.64 374.88 477.15 375.18 475.55 375.18C472.41 375.18 469.93 374.32 468.13 372.6C466.33 370.88 465.42 368.33 465.42 364.95V352.59H469.69V364.46C469.69 366.71 470.24 368.43 471.34 369.59C472.44 370.76 474.01 371.35 476.05 371.35C478.3 371.35 480.08 370.67 481.39 369.3C482.69 367.94 483.35 366.01 483.35 363.52V352.58H487.62L487.59 352.59Z" fill="#808080"/>
<path d="M506.53 345.03H510.98V372.28H527.83V376.15H506.53V345.03Z" fill="#808080"/>
<path d="M553.04 360.41H557.31V376.15H553.4V374.06C551.12 375.69 548.23 376.51 544.73 376.51C541.91 376.51 539.3 375.89 536.88 374.64C534.46 373.39 532.54 371.58 531.1 369.19C529.66 366.8 528.94 363.98 528.94 360.72C528.94 357.64 529.66 354.88 531.1 352.45C532.54 350.02 534.52 348.12 537.06 346.74C539.59 345.36 542.45 344.67 545.62 344.67C548.11 344.67 550.37 345.08 552.4 345.89C554.43 346.7 556.16 347.9 557.58 349.47L554.82 352.23C552.33 349.83 549.32 348.63 545.8 348.63C543.43 348.63 541.3 349.15 539.42 350.19C537.54 351.23 536.06 352.67 535 354.5C533.94 356.33 533.4 358.41 533.4 360.72C533.4 363.18 533.94 365.32 535.02 367.12C536.1 368.93 537.53 370.3 539.31 371.23C541.09 372.16 543.01 372.63 545.09 372.63C546.54 372.63 547.96 372.39 549.34 371.9C550.72 371.41 551.96 370.69 553.05 369.74V360.41H553.04Z" fill="#808080"/>
<path d="M577.22 374.53C575.98 373.27 575.35 371.5 575.35 369.22V343.17H579.62V368.87C579.62 370.14 579.92 371.12 580.53 371.8C581.14 372.48 582.05 372.82 583.26 372.82C584 372.82 584.7 372.67 585.35 372.38L585.57 375.89C584.59 376.24 583.57 376.42 582.5 376.42C580.22 376.42 578.45 375.79 577.21 374.53H577.22Z" fill="#808080"/>
<path d="M610.7 352.59V376.15H606.65V372.59C605.79 373.81 604.66 374.75 603.25 375.41C601.84 376.07 600.31 376.41 598.65 376.41C595.51 376.41 593.03 375.54 591.23 373.81C589.42 372.08 588.52 369.52 588.52 366.14V352.58H592.79V365.65C592.79 367.93 593.34 369.66 594.44 370.83C595.54 372 597.11 372.59 599.15 372.59C601.4 372.59 603.18 371.91 604.49 370.54C605.79 369.18 606.45 367.25 606.45 364.76V352.58H610.72L610.7 352.59Z" fill="#808080"/>
<path d="M640.48 352.59V372.95C640.48 377.07 639.46 380.11 637.41 382.09C635.37 384.06 632.31 385.05 628.25 385.05C626.03 385.05 623.91 384.75 621.89 384.14C619.87 383.53 618.25 382.66 617 381.54L619.04 378.25C620.14 379.2 621.49 379.95 623.11 380.49C624.72 381.04 626.39 381.31 628.11 381.31C630.87 381.31 632.9 380.66 634.22 379.35C635.54 378.05 636.2 376.06 636.2 373.39V371.52C635.19 372.74 633.96 373.65 632.49 374.25C631.02 374.86 629.43 375.16 627.71 375.16C625.46 375.16 623.42 374.68 621.6 373.72C619.78 372.76 618.35 371.41 617.31 369.67C616.27 367.93 615.75 365.96 615.75 363.73C615.75 361.5 616.27 359.53 617.31 357.79C618.35 356.06 619.78 354.72 621.6 353.77C623.42 352.82 625.46 352.35 627.71 352.35C629.49 352.35 631.14 352.68 632.67 353.33C634.2 353.98 635.45 354.95 636.43 356.22V352.58H640.48V352.59ZM632.37 370.46C633.6 369.81 634.56 368.9 635.26 367.72C635.96 366.55 636.3 365.22 636.3 363.74C636.3 361.46 635.54 359.61 634.03 358.2C632.52 356.79 630.58 356.09 628.21 356.09C625.84 356.09 623.85 356.79 622.34 358.2C620.83 359.61 620.07 361.45 620.07 363.74C620.07 365.22 620.42 366.55 621.11 367.72C621.81 368.89 622.77 369.8 624 370.46C625.23 371.11 626.63 371.44 628.2 371.44C629.77 371.44 631.13 371.11 632.36 370.46H632.37Z" fill="#808080"/>
<path d="M669.96 352.59V376.15H665.87V372.42C664.92 373.73 663.72 374.72 662.27 375.4C660.82 376.08 659.22 376.42 657.47 376.42C655.19 376.42 653.14 375.92 651.33 374.91C649.52 373.9 648.11 372.49 647.08 370.66C646.06 368.84 645.55 366.74 645.55 364.37C645.55 362 646.06 359.91 647.08 358.1C648.1 356.29 649.52 354.88 651.33 353.88C653.14 352.88 655.18 352.37 657.47 352.37C659.16 352.37 660.72 352.69 662.14 353.33C663.56 353.97 664.75 354.91 665.7 356.15V352.59H669.97H669.96ZM661.87 371.64C663.08 370.94 664.03 369.97 664.72 368.71C665.4 367.45 665.74 366.01 665.74 364.38C665.74 362.75 665.4 361.31 664.72 360.05C664.04 358.79 663.09 357.82 661.87 357.14C660.65 356.46 659.31 356.12 657.82 356.12C656.33 356.12 654.95 356.46 653.75 357.14C652.55 357.82 651.6 358.79 650.9 360.05C650.2 361.31 649.86 362.75 649.86 364.38C649.86 366.01 650.21 367.45 650.9 368.71C651.6 369.97 652.55 370.95 653.75 371.64C654.95 372.34 656.31 372.68 657.82 372.68C659.33 372.68 660.65 372.33 661.87 371.64Z" fill="#808080"/>
<path d="M684.54 353.43C685.99 352.72 687.76 352.36 689.83 352.36V356.5C689.59 356.47 689.27 356.46 688.85 356.46C686.54 356.46 684.72 357.15 683.4 358.53C682.08 359.91 681.42 361.87 681.42 364.42V376.16H677.15V352.6H681.24V356.55C681.98 355.19 683.08 354.15 684.53 353.44L684.54 353.43Z" fill="#808080"/>
<path d="M727.8 343.16V376.15H723.71V372.42C722.76 373.73 721.56 374.72 720.11 375.4C718.66 376.08 717.06 376.42 715.31 376.42C713.03 376.42 710.98 375.92 709.17 374.91C707.36 373.9 705.95 372.49 704.92 370.66C703.9 368.84 703.39 366.74 703.39 364.37C703.39 362 703.9 359.91 704.92 358.1C705.94 356.29 707.36 354.88 709.17 353.88C710.98 352.88 713.02 352.37 715.31 352.37C717 352.37 718.56 352.69 719.98 353.33C721.4 353.97 722.59 354.91 723.54 356.15V343.17H727.81L727.8 343.16ZM719.71 371.63C720.92 370.93 721.87 369.96 722.56 368.7C723.24 367.44 723.58 366 723.58 364.37C723.58 362.74 723.24 361.3 722.56 360.04C721.88 358.78 720.93 357.81 719.71 357.13C718.49 356.45 717.15 356.11 715.66 356.11C714.17 356.11 712.79 356.45 711.59 357.13C710.39 357.81 709.44 358.78 708.74 360.04C708.04 361.3 707.7 362.74 707.7 364.37C707.7 366 708.05 367.44 708.74 368.7C709.44 369.96 710.39 370.94 711.59 371.63C712.79 372.33 714.15 372.67 715.66 372.67C717.17 372.67 718.49 372.32 719.71 371.63Z" fill="#808080"/>
<path d="M752.43 369.84L754.74 372.6C753.7 373.84 752.39 374.79 750.81 375.45C749.23 376.11 747.45 376.43 745.5 376.43C743.01 376.43 740.8 375.92 738.88 374.9C736.95 373.88 735.46 372.45 734.41 370.61C733.36 368.77 732.83 366.7 732.83 364.39C732.83 362.08 733.34 360.05 734.36 358.21C735.38 356.37 736.79 354.94 738.58 353.92C740.37 352.9 742.4 352.39 744.65 352.39C746.78 352.39 748.72 352.87 750.47 353.84C752.22 354.8 753.61 356.16 754.65 357.91C755.69 359.66 756.22 361.67 756.25 363.96L737.53 367.6C738.12 369.23 739.12 370.49 740.53 371.38C741.94 372.27 743.64 372.71 745.62 372.71C748.44 372.71 750.7 371.76 752.42 369.87L752.43 369.84ZM740.67 356.99C739.5 357.67 738.59 358.63 737.94 359.86C737.29 361.09 736.96 362.52 736.96 364.15V364.59L752.03 361.74C751.64 360.02 750.79 358.63 749.45 357.56C748.12 356.49 746.52 355.96 744.65 355.96C743.17 355.96 741.84 356.3 740.67 356.98V356.99Z" fill="#808080"/>
<path d="M794.93 352.59V372.95C794.93 377.07 793.91 380.11 791.86 382.09C789.82 384.06 786.76 385.05 782.7 385.05C780.48 385.05 778.36 384.75 776.34 384.14C774.32 383.53 772.7 382.66 771.45 381.54L773.49 378.25C774.59 379.2 775.94 379.95 777.56 380.49C779.17 381.04 780.84 381.31 782.56 381.31C785.32 381.31 787.35 380.66 788.67 379.35C789.99 378.05 790.65 376.06 790.65 373.39V371.52C789.64 372.74 788.41 373.65 786.94 374.25C785.47 374.86 783.88 375.16 782.16 375.16C779.91 375.16 777.87 374.68 776.05 373.72C774.23 372.76 772.8 371.41 771.76 369.67C770.72 367.93 770.2 365.96 770.2 363.73C770.2 361.5 770.72 359.53 771.76 357.79C772.8 356.06 774.23 354.72 776.05 353.77C777.87 352.82 779.91 352.35 782.16 352.35C783.94 352.35 785.59 352.68 787.12 353.33C788.65 353.98 789.9 354.95 790.88 356.22V352.58H794.93V352.59ZM786.82 370.46C788.05 369.81 789.01 368.9 789.71 367.72C790.41 366.55 790.75 365.22 790.75 363.74C790.75 361.46 789.99 359.61 788.48 358.2C786.97 356.79 785.03 356.09 782.66 356.09C780.29 356.09 778.3 356.79 776.79 358.2C775.28 359.61 774.52 361.45 774.52 363.74C774.52 365.22 774.87 366.55 775.56 367.72C776.26 368.89 777.22 369.8 778.45 370.46C779.68 371.11 781.08 371.44 782.65 371.44C784.22 371.44 785.58 371.11 786.81 370.46H786.82Z" fill="#808080"/>
<path d="M819.6 369.84L821.91 372.6C820.87 373.84 819.56 374.79 817.98 375.45C816.4 376.11 814.62 376.43 812.67 376.43C810.18 376.43 807.97 375.92 806.05 374.9C804.12 373.88 802.63 372.45 801.58 370.61C800.53 368.77 800 366.7 800 364.39C800 362.08 800.51 360.05 801.53 358.21C802.55 356.37 803.96 354.94 805.75 353.92C807.54 352.9 809.57 352.39 811.82 352.39C813.95 352.39 815.89 352.87 817.64 353.84C819.39 354.8 820.78 356.16 821.82 357.91C822.86 359.66 823.39 361.67 823.42 363.96L804.7 367.6C805.29 369.23 806.29 370.49 807.7 371.38C809.11 372.27 810.81 372.71 812.79 372.71C815.61 372.71 817.87 371.76 819.59 369.87L819.6 369.84ZM807.84 356.99C806.67 357.67 805.76 358.63 805.11 359.86C804.46 361.09 804.13 362.52 804.13 364.15V364.59L819.2 361.74C818.81 360.02 817.96 358.63 816.62 357.56C815.29 356.49 813.69 355.96 811.82 355.96C810.34 355.96 809.01 356.3 807.84 356.98V356.99Z" fill="#808080"/>
<path d="M848.21 354.96C849.97 356.7 850.85 359.24 850.85 362.58V376.14H846.58V363.07C846.58 360.79 846.03 359.07 844.94 357.91C843.84 356.75 842.27 356.18 840.23 356.18C837.92 356.18 836.09 356.85 834.76 358.2C833.43 359.55 832.76 361.48 832.76 364V376.14H828.49V352.58H832.58V356.14C833.44 354.92 834.6 353.99 836.07 353.34C837.54 352.69 839.2 352.36 841.07 352.36C844.06 352.36 846.44 353.23 848.21 354.96Z" fill="#808080"/>
<path d="M870.28 374.77C869.66 375.3 868.89 375.71 867.97 375.99C867.05 376.27 866.1 376.41 865.12 376.41C862.75 376.41 860.91 375.77 859.61 374.5C858.31 373.23 857.65 371.4 857.65 369.03V347.42H861.92V352.58H868.68V356.09H861.92V368.85C861.92 370.12 862.24 371.1 862.88 371.78C863.52 372.46 864.43 372.8 865.61 372.8C866.91 372.8 868.03 372.43 868.94 371.69L870.27 374.76L870.28 374.77Z" fill="#808080"/>
<path d="M891.18 369.84L893.49 372.6C892.45 373.84 891.14 374.79 889.56 375.45C887.98 376.11 886.2 376.43 884.25 376.43C881.76 376.43 879.55 375.92 877.63 374.9C875.7 373.88 874.21 372.45 873.16 370.61C872.11 368.77 871.58 366.7 871.58 364.39C871.58 362.08 872.09 360.05 873.11 358.21C874.13 356.37 875.54 354.94 877.33 353.92C879.12 352.9 881.15 352.39 883.4 352.39C885.53 352.39 887.47 352.87 889.22 353.84C890.97 354.8 892.36 356.16 893.4 357.91C894.44 359.66 894.97 361.67 895 363.96L876.28 367.6C876.87 369.23 877.87 370.49 879.28 371.38C880.69 372.27 882.39 372.71 884.37 372.71C887.19 372.71 889.45 371.76 891.17 369.87L891.18 369.84ZM879.42 356.99C878.25 357.67 877.34 358.63 876.69 359.86C876.04 361.09 875.71 362.52 875.71 364.15V364.59L890.78 361.74C890.39 360.02 889.54 358.63 888.2 357.56C886.87 356.49 885.27 355.96 883.4 355.96C881.92 355.96 880.59 356.3 879.42 356.98V356.99Z" fill="#808080"/>
</svg>
