<?xml version="1.0" encoding="UTF-8" standalone="no"?>
<!DOCTYPE svg PUBLIC "-//W3C//DTD SVG 1.1//EN" "http://www.w3.org/Graphics/SVG/1.1/DTD/svg11.dtd">
<svg width="100%" height="100%" viewBox="0 0 1300 1299" version="1.1" xmlns="http://www.w3.org/2000/svg" xmlns:xlink="http://www.w3.org/1999/xlink" xml:space="preserve" xmlns:serif="http://www.serif.com/" style="fill-rule:evenodd;clip-rule:evenodd;stroke-linejoin:round;stroke-miterlimit:2;">
    <g transform="matrix(1,0,0,1,-0.0307981,0.043001)">
        <g transform="matrix(1,0,0,1,-87775.4,-29378.5)">
            <g transform="matrix(-4.03378,-3.82006,-3.82006,4.03378,94252.5,31135.6)">
                <g>
                    <g>
                        <path d="M819.657,490.921C865.488,448.548 936.134,449.861 980.379,492.833L819.657,662.546C817.441,660.491 815.266,658.367 813.179,656.11C769.353,608.705 772.252,534.748 819.657,490.921" style="fill:rgb(79,105,246);fill-rule:nonzero;"/>
                    </g>
                </g>
            </g>
            <g transform="matrix(-4.78843,2.81695,2.81695,4.78843,90108.8,26005)">
                <g>
                    <path d="M694.484,469.98L745.169,469.98C745.169,477.57 744.416,485.198 742.926,492.656L693.221,482.738C694.06,478.538 694.483,474.246 694.484,469.98" style="fill:rgb(79,105,246);fill-rule:nonzero;"/>
                </g>
            </g>
            <g transform="matrix(-3.33795,4.44098,4.44098,3.33795,88553.2,25602.7)">
                <g>
                    <path d="M716.432,459.306L767.117,459.306C767.117,460.978 767.085,462.643 767.017,464.312L716.373,462.227C716.413,461.255 716.432,460.28 716.432,459.306" style="fill:rgb(79,105,246);fill-rule:nonzero;"/>
                </g>
            </g>
            <g transform="matrix(4.70359,2.95642,2.95642,-4.70359,83339.5,30333)">
                <g>
                    <path d="M772.915,420.512C780.307,422.327 787.538,424.881 794.411,428.1L772.915,474C769.054,472.191 764.989,470.758 760.829,469.738L772.915,420.512Z" style="fill:rgb(79,105,246);fill-rule:nonzero;"/>
                </g>
            </g>
            <g transform="matrix(5.55556,0,0,5.55556,84000,27185)">
                <g>
                    <path d="M730.373,515.354C730.305,514.199 730.268,513.048 730.262,511.902L679.577,512.156C679.587,514.206 679.655,516.292 679.777,518.352C680.102,523.849 680.827,529.384 681.933,534.801L731.595,524.674C730.968,521.6 730.557,518.465 730.373,515.354" style="fill:rgb(79,105,246);fill-rule:nonzero;"/>
                </g>
            </g>
            <g transform="matrix(-5.28689,1.70677,1.70677,5.28689,90844.6,26341.2)">
                <g>
                    <path d="M684.497,497.492L735.184,497.492C735.183,500.852 735.034,504.26 734.739,507.621L684.248,503.192C684.414,501.298 684.497,499.38 684.497,497.492" style="fill:rgb(79,105,246);fill-rule:nonzero;"/>
                </g>
            </g>
            <g transform="matrix(-2.84946,4.76915,4.76915,2.84946,88150.3,25593.2)">
                <g>
                    <path d="M725.652,451.272L776.335,451.272C776.335,454.639 776.186,458.05 775.891,461.409L725.4,456.969C725.566,455.081 725.652,453.163 725.652,451.272" style="fill:rgb(79,105,246);fill-rule:nonzero;"/>
                </g>
            </g>
            <g transform="matrix(-5.26509,-1.77287,-1.77287,5.26509,92667.5,28169.3)">
                <g>
                    <path d="M683.201,561.057L733.886,561.057C733.887,562.766 733.846,564.476 733.768,566.188L683.134,563.86C683.179,562.925 683.2,561.991 683.201,561.057" style="fill:rgb(79,105,246);fill-rule:nonzero;"/>
                </g>
            </g>
            <g transform="matrix(-4.19704,-3.63994,-3.63994,4.19704,93173.3,29874.4)">
                <g>
                    <path d="M693.728,581.163L744.415,581.163C744.414,588.741 743.67,596.357 742.195,603.799L692.475,593.961C693.308,589.752 693.729,585.447 693.728,581.163" style="fill:rgb(79,105,246);fill-rule:nonzero;"/>
                </g>
            </g>
            <g transform="matrix(-5.42916,-1.17833,-1.17833,5.42916,92406.3,27773.5)">
                <g>
                    <path d="M680.529,548.612L731.213,548.612C731.215,551.99 731.065,555.401 730.77,558.749L680.279,554.311C680.445,552.432 680.528,550.514 680.529,548.612" style="fill:rgb(79,105,246);fill-rule:nonzero;"/>
                </g>
            </g>
            <g transform="matrix(-3.31312,-4.45953,-4.45953,3.31312,93246.8,30912.8)">
                <g>
                    <path d="M711.509,602.09L762.195,602.09C762.194,605.461 762.048,608.865 761.757,612.206L711.262,607.806C711.427,605.924 711.509,603.998 711.509,602.09" style="fill:rgb(79,105,246);fill-rule:nonzero;"/>
                </g>
            </g>
            <g transform="matrix(5.55556,0,0,5.55556,84000,26070.7)">
                <g>
                    <path d="M782.714,647.956C784.098,647.673 785.509,647.433 786.906,647.239L779.94,597.034C777.486,597.376 775.011,597.8 772.582,598.294C767.589,599.314 762.634,600.664 757.853,602.309L774.354,650.234C777.058,649.303 779.872,648.536 782.714,647.956" style="fill:rgb(79,105,246);fill-rule:nonzero;"/>
                </g>
            </g>
            <g transform="matrix(-2.80097,-4.79779,-4.79779,2.80097,93189,31466.5)">
                <g>
                    <path d="M721.969,610.59L772.655,610.59C772.656,612.287 772.616,613.979 772.541,615.664L721.907,613.422C721.947,612.48 721.968,611.538 721.969,610.59" style="fill:rgb(79,105,246);fill-rule:nonzero;"/>
                </g>
            </g>
            <g transform="matrix(-4.03376,-3.82008,-3.82008,4.03376,94264.2,31140.4)">
                <g>
                    <path d="M821.399,491.541C866.585,449.766 936.236,451.059 979.858,493.427L821.399,660.75C819.213,658.724 817.069,656.63 815.012,654.405C771.802,607.667 774.661,534.751 821.399,491.541" style="fill:rgb(79,105,246);fill-rule:nonzero;"/>
                </g>
            </g>
        </g>
    </g>
</svg>
